<svg width="20" height="20" fill="none" xmlns="http://www.w3.org/2000/svg"><path d="M7.654 2.586c.878-2.115 3.814-2.115 4.692 0l.612 1.474a2.555 2.555 0 002.065 1.57l1.707.194c2.155.244 3.046 2.951 1.471 4.475L16.752 11.7a2.636 2.636 0 00-.745 2.403l.35 1.772c.443 2.242-1.96 3.935-3.855 2.717l-1.145-.736a2.503 2.503 0 00-2.714 0l-1.145.736c-1.896 1.218-4.298-.475-3.855-2.717l.35-1.771a2.637 2.637 0 00-.745-2.404L1.798 10.3C.225 8.775 1.116 6.069 3.27 5.824l1.707-.194a2.555 2.555 0 002.065-1.57l.612-1.474z" stroke="#3BCBB2" stroke-width="1.5" stroke-linecap="round" stroke-linejoin="round"/></svg>